<?xml version="1.0" standalone="no"?>
<!DOCTYPE svg PUBLIC "-//W3C//DTD SVG 20010904//EN"
 "http://www.w3.org/TR/2001/REC-SVG-20010904/DTD/svg10.dtd">
<svg version="1.0" xmlns="http://www.w3.org/2000/svg"
 width="647.000000pt" height="647.000000pt" viewBox="0 0 647.000000 647.000000"
 preserveAspectRatio="xMidYMid meet">
<metadata>
Created by potrace 1.11, written by Peter Selinger 2001-2013
</metadata>
<g transform="translate(0.000000,647.000000) scale(0.100000,-0.100000)"
fill="#000000" stroke="none">
<path d="M3118 6465 c-2 -1 -41 -5 -88 -9 -111 -9 -302 -39 -435 -69 -414 -95
-904 -344 -1225 -624 -14 -12 -36 -31 -50 -43 -65 -56 -232 -226 -302 -307
-36 -42 -166 -216 -205 -273 -253 -377 -419 -828 -479 -1295 -18 -145 -24
-466 -10 -610 15 -159 22 -207 53 -355 53 -258 142 -510 266 -753 67 -132 187
-326 263 -425 l36 -47 -239 -5 -238 -5 -1 -153 -1 -152 52 0 52 0 0 -195 0
-195 -52 0 -51 0 -1 -156 0 -156 311 5 c171 2 327 7 346 11 19 4 63 20 96 36
34 17 64 30 67 30 3 0 4 -13 2 -28 -2 -16 0 -34 4 -40 5 -8 166 -12 576 -15
559 -3 571 -3 645 -26 41 -12 84 -24 95 -26 11 -3 40 -9 65 -15 53 -12 94 -19
135 -25 17 -2 46 -7 65 -10 120 -19 246 -28 405 -29 137 0 321 8 370 18 11 2
43 7 70 10 28 4 66 10 85 12 60 9 262 55 325 75 48 15 92 19 218 19 l157 0 1
33 c1 17 0 44 -1 58 -1 20 5 29 29 39 27 11 32 10 58 -14 82 -78 198 -118 350
-122 212 -5 372 62 473 199 16 22 29 32 32 25 2 -7 3 -59 3 -115 l-1 -103 460
0 461 0 -2 267 c-1 148 -2 276 -2 286 -1 15 -16 17 -166 17 l-165 0 0 -130 0
-130 -40 0 -40 0 0 195 0 195 60 0 60 0 0 155 0 155 -209 2 -208 3 72 102
c258 364 433 783 510 1218 49 280 54 654 13 930 -5 39 -12 82 -14 96 -2 14 -8
48 -15 75 -6 27 -13 60 -15 74 -41 216 -177 568 -312 805 -122 213 -299 448
-464 615 -96 97 -223 213 -263 240 -12 8 -41 31 -66 51 -137 112 -420 278
-620 364 -192 81 -479 170 -619 190 -25 3 -63 10 -85 15 -22 4 -67 11 -100 15
-33 3 -73 8 -90 11 -34 5 -462 14 -467 9z m-2148 -5135 c0 -5 -4 -10 -10 -10
-5 0 -10 5 -10 10 0 6 5 10 10 10 6 0 10 -4 10 -10z m4594 -185 l0 -190 -43
-3 c-42 -3 -43 -2 -37 20 21 69 26 100 27 168 0 69 -10 140 -27 184 -6 15 -1
17 37 14 l43 -3 0 -190z m-4193 64 c13 -12 39 -34 58 -49 l34 -29 -25 -87
c-26 -94 -47 -119 -49 -60 -1 20 -3 41 -4 46 -1 6 -3 16 -4 23 0 7 -17 40 -37
72 -31 52 -34 62 -23 82 15 28 20 28 50 2z m3735 -116 c-13 -98 -88 -157 -175
-138 -34 7 -40 21 -13 30 9 3 55 34 102 69 47 36 86 65 87 65 2 1 1 -11 -1
-26z m-4106 -113 c0 -17 -19 -30 -41 -30 -7 0 -7 43 0 57 1 0 10 -1 21 -4 11
-3 20 -13 20 -23z"/>
<path d="M52 1600 c-6 -12 -8 -205 -3 -271 1 -11 9 -14 31 -11 16 2 28 8 25
12 -11 18 24 25 123 26 91 1 102 -1 102 -17 0 -20 17 -28 43 -21 15 4 17 20
17 148 0 159 6 146 -65 146 -43 0 -45 -1 -45 -32 0 -25 4 -30 25 -30 24 0 25
-3 25 -53 l0 -53 -42 0 -43 1 -3 43 c-3 39 -5 42 -31 42 -20 0 -28 -5 -28 -17
0 -70 -1 -72 -38 -71 -38 1 -42 6 -41 63 1 36 4 40 27 43 22 3 26 8 25 33 0
22 -6 29 -21 30 -11 0 -33 2 -48 3 -18 1 -31 -4 -35 -14z"/>
<path d="M49 1263 c-1 -22 -1 -125 0 -135 1 -5 15 -8 32 -8 24 0 30 4 25 15
-6 16 -6 16 42 19 32 2 32 2 32 -47 l0 -48 -37 3 c-26 2 -38 8 -38 18 0 10
-10 15 -29 15 -29 0 -29 -1 -29 -55 1 -110 1 -110 23 -107 23 4 35 14 35 30 0
8 35 13 113 14 102 2 112 0 112 -17 0 -20 23 -32 45 -24 12 5 15 24 15 85 l0
79 -30 0 c-23 0 -30 -5 -30 -19 0 -15 -8 -19 -45 -19 -25 -1 -45 2 -46 6 -8
75 -3 84 50 87 35 2 41 0 41 -16 0 -14 7 -19 30 -19 l30 0 0 80 0 80 -30 0
c-23 0 -30 -4 -30 -20 0 -19 -7 -20 -115 -20 -105 0 -116 2 -113 18 2 12 -5
18 -24 20 -21 3 -28 -1 -29 -15z"/>
<path d="M49 893 c-5 -45 -2 -278 3 -286 4 -6 32 -12 63 -12 46 -1 58 3 67 18
13 24 2 35 -42 39 -28 3 -35 9 -36 26 -1 24 -6 23 116 26 103 2 110 0 110 -29
0 -19 5 -22 30 -21 l30 1 0 92 0 93 -30 0 c-25 0 -30 -4 -30 -25 l0 -26 -112
3 c-109 3 -113 4 -114 26 -1 19 4 22 41 22 44 0 42 -3 36 53 -1 4 -30 7 -66 7
-36 0 -65 -3 -66 -7z"/>
<path d="M5462 512 l-33 -3 3 -102 3 -101 30 1 c17 0 35 1 41 2 6 0 10 22 10
51 -1 28 1 54 4 58 3 4 20 7 38 8 l32 1 1 -121 c2 -240 5 -225 -41 -220 -31 4
-32 3 -33 -51 l-1 -30 142 -3 142 -3 0 45 c0 44 0 44 -35 42 -19 -1 -36 3 -38
9 -2 5 -3 82 -3 170 l1 159 38 1 c40 1 39 3 39 -72 0 -44 2 -45 48 -45 11 0
25 0 30 1 12 1 14 201 3 201 -42 3 -396 4 -421 2z"/>
<path d="M5914 511 c-7 -8 -4 -81 4 -82 25 -2 46 -9 52 -16 4 -4 31 -75 60
-158 28 -82 60 -172 69 -200 l18 -50 55 -3 55 -3 69 208 c38 114 70 210 71
212 2 2 15 5 30 6 25 1 28 5 31 43 4 47 13 43 -113 43 -113 0 -105 4 -105 -45
0 -42 1 -43 30 -41 17 1 30 0 30 -3 0 -13 -73 -227 -80 -235 -7 -7 -84 213
-81 230 0 4 10 9 21 9 11 1 24 2 30 3 5 0 9 20 7 43 l-2 41 -123 1 c-68 1
-126 -1 -128 -3z"/>
</g>
</svg>
